<mxfile host="app.diagrams.net" modified="2023-04-24T08:51:52.297Z" agent="Mozilla/5.0 (Macintosh; Intel Mac OS X 10_15_7) AppleWebKit/537.36 (KHTML, like Gecko) Chrome/112.0.0.0 Safari/537.36" etag="MQwdj6G6bz0S9Hb-ATFC" version="21.1.4" type="device" pages="2">
  <diagram name="Page-1" id="nfkIAd48DgskGaMtLhL-">
    <mxGraphModel dx="1314" dy="842" grid="1" gridSize="10" guides="1" tooltips="1" connect="1" arrows="1" fold="1" page="1" pageScale="1" pageWidth="850" pageHeight="1100" math="0" shadow="0">
      <root>
        <mxCell id="0" />
        <mxCell id="1" parent="0" />
        <mxCell id="kmc2CJXoygzKGKCTCTe2-8" style="edgeStyle=orthogonalEdgeStyle;rounded=0;orthogonalLoop=1;jettySize=auto;html=1;exitX=0;exitY=0.5;exitDx=0;exitDy=0;entryX=0.5;entryY=0;entryDx=0;entryDy=0;" edge="1" parent="1" source="kmc2CJXoygzKGKCTCTe2-1" target="kmc2CJXoygzKGKCTCTe2-2">
          <mxGeometry relative="1" as="geometry">
            <mxPoint x="130" y="150" as="targetPoint" />
          </mxGeometry>
        </mxCell>
        <mxCell id="kmc2CJXoygzKGKCTCTe2-11" style="edgeStyle=orthogonalEdgeStyle;rounded=0;orthogonalLoop=1;jettySize=auto;html=1;exitX=1;exitY=0.5;exitDx=0;exitDy=0;entryX=0.5;entryY=0;entryDx=0;entryDy=0;" edge="1" parent="1" source="kmc2CJXoygzKGKCTCTe2-1" target="kmc2CJXoygzKGKCTCTe2-5">
          <mxGeometry relative="1" as="geometry" />
        </mxCell>
        <mxCell id="kmc2CJXoygzKGKCTCTe2-1" value="User" style="rounded=0;whiteSpace=wrap;html=1;" vertex="1" parent="1">
          <mxGeometry x="160" y="40" width="120" height="60" as="geometry" />
        </mxCell>
        <mxCell id="kmc2CJXoygzKGKCTCTe2-9" style="edgeStyle=orthogonalEdgeStyle;rounded=0;orthogonalLoop=1;jettySize=auto;html=1;exitX=0.5;exitY=1;exitDx=0;exitDy=0;entryX=0.5;entryY=0;entryDx=0;entryDy=0;" edge="1" parent="1" source="kmc2CJXoygzKGKCTCTe2-2" target="kmc2CJXoygzKGKCTCTe2-3">
          <mxGeometry relative="1" as="geometry" />
        </mxCell>
        <mxCell id="kmc2CJXoygzKGKCTCTe2-12" style="edgeStyle=orthogonalEdgeStyle;rounded=0;orthogonalLoop=1;jettySize=auto;html=1;exitX=1;exitY=0.5;exitDx=0;exitDy=0;entryX=0;entryY=0.5;entryDx=0;entryDy=0;" edge="1" parent="1" source="kmc2CJXoygzKGKCTCTe2-2" target="kmc2CJXoygzKGKCTCTe2-5">
          <mxGeometry relative="1" as="geometry" />
        </mxCell>
        <mxCell id="kmc2CJXoygzKGKCTCTe2-2" value="Quiz" style="rounded=0;whiteSpace=wrap;html=1;" vertex="1" parent="1">
          <mxGeometry x="40" y="160" width="120" height="60" as="geometry" />
        </mxCell>
        <mxCell id="kmc2CJXoygzKGKCTCTe2-10" style="edgeStyle=orthogonalEdgeStyle;rounded=0;orthogonalLoop=1;jettySize=auto;html=1;exitX=0.5;exitY=1;exitDx=0;exitDy=0;entryX=0.5;entryY=0;entryDx=0;entryDy=0;" edge="1" parent="1" source="kmc2CJXoygzKGKCTCTe2-3" target="kmc2CJXoygzKGKCTCTe2-4">
          <mxGeometry relative="1" as="geometry" />
        </mxCell>
        <mxCell id="kmc2CJXoygzKGKCTCTe2-13" style="edgeStyle=orthogonalEdgeStyle;rounded=0;orthogonalLoop=1;jettySize=auto;html=1;exitX=1;exitY=0.5;exitDx=0;exitDy=0;entryX=0;entryY=0.5;entryDx=0;entryDy=0;" edge="1" parent="1" source="kmc2CJXoygzKGKCTCTe2-3" target="kmc2CJXoygzKGKCTCTe2-6">
          <mxGeometry relative="1" as="geometry" />
        </mxCell>
        <mxCell id="kmc2CJXoygzKGKCTCTe2-3" value="Question" style="rounded=0;whiteSpace=wrap;html=1;" vertex="1" parent="1">
          <mxGeometry x="40" y="280" width="120" height="60" as="geometry" />
        </mxCell>
        <mxCell id="kmc2CJXoygzKGKCTCTe2-14" style="edgeStyle=orthogonalEdgeStyle;rounded=0;orthogonalLoop=1;jettySize=auto;html=1;exitX=1;exitY=0.5;exitDx=0;exitDy=0;entryX=0;entryY=0.5;entryDx=0;entryDy=0;" edge="1" parent="1" source="kmc2CJXoygzKGKCTCTe2-4" target="kmc2CJXoygzKGKCTCTe2-7">
          <mxGeometry relative="1" as="geometry" />
        </mxCell>
        <mxCell id="kmc2CJXoygzKGKCTCTe2-4" value="Answer" style="rounded=0;whiteSpace=wrap;html=1;" vertex="1" parent="1">
          <mxGeometry x="40" y="400" width="120" height="60" as="geometry" />
        </mxCell>
        <mxCell id="kmc2CJXoygzKGKCTCTe2-15" style="edgeStyle=orthogonalEdgeStyle;rounded=0;orthogonalLoop=1;jettySize=auto;html=1;exitX=0.5;exitY=1;exitDx=0;exitDy=0;entryX=0.5;entryY=0;entryDx=0;entryDy=0;" edge="1" parent="1" source="kmc2CJXoygzKGKCTCTe2-5" target="kmc2CJXoygzKGKCTCTe2-6">
          <mxGeometry relative="1" as="geometry" />
        </mxCell>
        <mxCell id="kmc2CJXoygzKGKCTCTe2-5" value="Submission" style="rounded=0;whiteSpace=wrap;html=1;" vertex="1" parent="1">
          <mxGeometry x="280" y="160" width="120" height="60" as="geometry" />
        </mxCell>
        <mxCell id="kmc2CJXoygzKGKCTCTe2-16" style="edgeStyle=orthogonalEdgeStyle;rounded=0;orthogonalLoop=1;jettySize=auto;html=1;exitX=0.5;exitY=1;exitDx=0;exitDy=0;entryX=0.5;entryY=0;entryDx=0;entryDy=0;" edge="1" parent="1" source="kmc2CJXoygzKGKCTCTe2-6" target="kmc2CJXoygzKGKCTCTe2-7">
          <mxGeometry relative="1" as="geometry" />
        </mxCell>
        <mxCell id="kmc2CJXoygzKGKCTCTe2-6" value="Attempt" style="rounded=0;whiteSpace=wrap;html=1;" vertex="1" parent="1">
          <mxGeometry x="280" y="280" width="120" height="60" as="geometry" />
        </mxCell>
        <mxCell id="kmc2CJXoygzKGKCTCTe2-7" value="Solution" style="rounded=0;whiteSpace=wrap;html=1;" vertex="1" parent="1">
          <mxGeometry x="280" y="400" width="120" height="60" as="geometry" />
        </mxCell>
      </root>
    </mxGraphModel>
  </diagram>
  <diagram id="5WygXWyix9dKRklLk4H1" name="Page-2">
    <mxGraphModel dx="1314" dy="842" grid="1" gridSize="10" guides="1" tooltips="1" connect="1" arrows="1" fold="1" page="1" pageScale="1" pageWidth="850" pageHeight="1100" math="0" shadow="0">
      <root>
        <mxCell id="0" />
        <mxCell id="1" parent="0" />
      </root>
    </mxGraphModel>
  </diagram>
</mxfile>
